<?xml version="1.0" encoding="UTF-8"?>
<!DOCTYPE svg PUBLIC "-//W3C//DTD SVG 1.1//EN" "http://www.w3.org/Graphics/SVG/1.1/DTD/svg11.dtd">
<!-- Creator: CorelDRAW 2019 (64-Bit) -->
<svg xmlns="http://www.w3.org/2000/svg" xml:space="preserve" width="17.4946mm" height="10.6675mm" version="1.1" style="shape-rendering:geometricPrecision; text-rendering:geometricPrecision; image-rendering:optimizeQuality; fill-rule:evenodd; clip-rule:evenodd"
viewBox="0 0 1746.41 1064.89"
 xmlns:xlink="http://www.w3.org/1999/xlink">
 <defs>
  <style type="text/css">
   <![CDATA[
    .fil0 {fill:black}
   ]]>
  </style>
 </defs>
 <g id="Vrstva_x0020_1">
  <metadata id="CorelCorpID_0Corel-Layer"/>
  <path class="fil0" d="M99.83 0l1546.75 0c54.9,0 99.83,44.92 99.83,99.83l0 223.29 -354.93 0 -13.62 0 0 73.01 13.62 0 354.93 0 0 286.36 -1746.41 0 0 -286.36 362.47 0 0 -73.01 -362.47 0 0 -223.29c0,-54.9 44.92,-99.83 99.83,-99.83zm1484.69 854.05c27.57,0 49.91,22.34 49.91,49.91 0,27.57 -22.34,49.91 -49.91,49.91 -27.57,0 -49.91,-22.34 -49.91,-49.91 0,-27.57 22.34,-49.91 49.91,-49.91zm0 -359.37c27.57,0 49.91,22.34 49.91,49.91 0,27.57 -22.34,49.91 -49.91,49.91 -27.57,0 -49.91,-22.34 -49.91,-49.91 0,-27.57 22.34,-49.91 49.91,-49.91zm0 -359.37c27.57,0 49.91,22.34 49.91,49.91 0,27.57 -22.34,49.91 -49.91,49.91 -27.57,0 -49.91,-22.34 -49.91,-49.91 0,-27.57 22.34,-49.91 49.91,-49.91zm-1397.56 718.74c27.57,0 49.91,22.34 49.91,49.91 0,27.57 -22.34,49.91 -49.91,49.91 -27.57,0 -49.91,-22.34 -49.91,-49.91 0,-27.57 22.34,-49.91 49.91,-49.91zm0 -359.37c27.57,0 49.91,22.34 49.91,49.91 0,27.57 -22.34,49.91 -49.91,49.91 -27.57,0 -49.91,-22.34 -49.91,-49.91 0,-27.57 22.34,-49.91 49.91,-49.91zm1559.44 260.82l0 209.56c0,54.9 -44.92,99.83 -99.83,99.83l-1546.75 0c-54.9,0 -99.83,-44.92 -99.83,-99.83l0 -209.56 1746.41 0zm-1559.44 -620.2c27.57,0 49.91,22.34 49.91,49.91 0,27.57 -22.34,49.91 -49.91,49.91 -27.57,0 -49.91,-22.34 -49.91,-49.91 0,-27.57 22.34,-49.91 49.91,-49.91zm515.86 99.83l340.77 0c97.06,0 176.46,79.4 176.46,176.46l0 0.01c0,97.06 -79.4,176.46 -176.46,176.46l-340.77 0c-97.06,0 -176.46,-79.4 -176.46,-176.46l0 -0.01c0,-97.06 79.4,-176.46 176.46,-176.46z"/>
 </g>
</svg>
