<?xml version="1.0" encoding="UTF-8"?>
<!DOCTYPE svg PUBLIC "-//W3C//DTD SVG 1.1//EN" "http://www.w3.org/Graphics/SVG/1.1/DTD/svg11.dtd">
<!-- Creator: CorelDRAW 2019 (64-Bit) -->
<svg xmlns="http://www.w3.org/2000/svg" xml:space="preserve" width="5.027mm" height="3.7042mm" version="1.1" style="shape-rendering:geometricPrecision; text-rendering:geometricPrecision; image-rendering:optimizeQuality; fill-rule:evenodd; clip-rule:evenodd"
viewBox="0 0 530.63 391"
 xmlns:xlink="http://www.w3.org/1999/xlink">
 <defs>
  <style type="text/css">
   <![CDATA[
    .fil0 {fill:black}
   ]]>
  </style>
 </defs>
 <g id="Vrstva_x0020_1">
  <metadata id="CorelCorpID_0Corel-Layer"/>
  <path class="fil0" d="M408.59 23.47c-10.05,-14.25 -26.81,-23.47 -45.53,-23.47l-307.21 0.29c-30.72,0 -55.85,24.85 -55.85,55.58l0 279.28c0,30.72 25.13,55.58 55.86,55.58l307.2 0.29c18.72,0 35.47,-9.22 45.53,-23.45l122.04 -172.05 -122.04 -172.04zm-35.77 128.89c23.82,0 43.14,19.32 43.14,43.14 0,23.82 -19.32,43.14 -43.14,43.14 -23.82,0 -43.14,-19.32 -43.14,-43.14 0,-23.82 19.32,-43.14 43.14,-43.14z"/>
 </g>
</svg>
